<mxfile host="app.diagrams.net" modified="2024-04-11T17:30:24.705Z" agent="Mozilla/5.0 (Windows NT 10.0; Win64; x64) AppleWebKit/537.36 (KHTML, like Gecko) Chrome/123.0.0.0 Safari/537.36" version="24.2.3" etag="G05C61A5RidVtyhp4fVz" type="github">
  <diagram name="Page-1" id="c-xjIqkDHU_Y2RGxQIHS">
    <mxGraphModel>
      <root>
        <mxCell id="0" />
        <mxCell id="1" parent="0" />
      </root>
    </mxGraphModel>
  </diagram>
</mxfile>
